<?xml version="1.0" encoding="UTF-8"?>
<svg xmlns="http://www.w3.org/2000/svg" xmlns:xlink="http://www.w3.org/1999/xlink" width="78px" height="30px" viewBox="0 0 104 40" version="1.1">
<g id="surface1">
<path style=" stroke:none;fill-rule:nonzero;fill:rgb(0%,0%,0%);fill-opacity:1;" d="M 5.238281 38.152344 C 4.941406 38.152344 4.644531 38.148438 4.34375 38.132812 L 3.40625 38.097656 L 3.414062 2.574219 L 5.359375 2.574219 L 5.355469 36.203125 C 7.476562 36.195312 9.285156 35.859375 11.183594 35.511719 C 15.125 34.78125 19.199219 34.03125 26.230469 36.230469 L 25.648438 38.089844 C 19.082031 36.035156 15.417969 36.710938 11.535156 37.421875 C 9.597656 37.785156 7.597656 38.152344 5.238281 38.152344 Z M 5.238281 38.152344 "/>
<path style=" stroke:none;fill-rule:nonzero;fill:rgb(0%,0%,0%);fill-opacity:1;" d="M 101.9375 38.449219 L 100.675781 38.054688 C 94.105469 35.996094 90.445312 36.675781 86.5625 37.390625 C 84.382812 37.792969 82.125 38.207031 79.367188 38.097656 L 79.445312 36.152344 C 81.980469 36.25 84.039062 35.875 86.210938 35.472656 C 89.910156 34.792969 93.726562 34.085938 99.992188 35.824219 L 99.992188 22.523438 L 101.9375 22.523438 Z M 101.9375 38.449219 "/>
<path style=" stroke:none;fill-rule:nonzero;fill:rgb(0%,0%,0%);fill-opacity:1;" d="M 79.667969 4.351562 L 79.273438 2.441406 C 79.515625 2.394531 80.015625 2.21875 80.589844 2.019531 C 84.300781 0.71875 92.988281 -2.316406 101.449219 2.574219 L 100.476562 4.261719 C 92.792969 -0.183594 84.691406 2.648438 81.234375 3.855469 C 80.539062 4.097656 80.035156 4.269531 79.667969 4.351562 Z M 79.667969 4.351562 "/>
<path style=" stroke:none;fill-rule:nonzero;fill:rgb(0%,0%,0%);fill-opacity:1;" d="M 101.941406 37.097656 L 99.996094 37.097656 L 99.996094 23.164062 L 78.5 16.398438 L 78.496094 3.390625 L 80.441406 3.390625 L 80.445312 14.96875 L 101.941406 21.734375 Z M 101.941406 37.097656 "/>
<path style=" stroke:none;fill-rule:nonzero;fill:rgb(0%,0%,0%);fill-opacity:1;" d="M 80.445312 4.460938 L 78.5 4.460938 L 78.5 2.675781 L 80.136719 2.167969 L 80.710938 4.03125 L 80.445312 4.113281 Z M 80.445312 4.460938 "/>
<path style=" stroke:none;fill-rule:nonzero;fill:rgb(41.568627%,74.509804%,64.313725%);fill-opacity:1;" d="M 73.996094 38.113281 L 72.050781 38.113281 L 72.050781 4.144531 C 71.820312 4.070312 71.558594 3.976562 71.265625 3.875 C 67.832031 2.683594 59.898438 -0.0703125 52.339844 3.984375 L 52.339844 16.902344 L 50.394531 16.902344 L 50.394531 2.847656 L 50.878906 2.566406 C 59.347656 -2.324219 68.140625 0.730469 71.902344 2.03125 C 72.480469 2.234375 72.980469 2.40625 73.21875 2.457031 L 73.996094 2.617188 Z M 73.996094 38.113281 "/>
<path style=" stroke:none;fill-rule:nonzero;fill:rgb(41.568627%,74.509804%,64.313725%);fill-opacity:1;" d="M 28.945312 38.105469 L 28.945312 2.609375 L 29.722656 2.449219 C 29.964844 2.398438 30.464844 2.226562 31.039062 2.019531 C 34.738281 0.722656 43.402344 -2.316406 51.859375 2.570312 L 52.34375 2.851562 L 52.34375 22.988281 L 50.394531 22.988281 L 50.394531 3.984375 C 42.863281 -0.0625 35.054688 2.675781 31.679688 3.859375 C 31.382812 3.960938 31.121094 4.054688 30.886719 4.132812 L 30.886719 38.105469 Z M 28.945312 38.105469 "/>
<path style=" stroke:none;fill-rule:nonzero;fill:rgb(0%,0%,0%);fill-opacity:1;" d="M 31.195312 38.109375 C 31.070312 38.109375 30.945312 38.109375 30.820312 38.105469 L 30.871094 36.160156 C 32.589844 36.214844 34.589844 35.859375 36.699219 35.5 C 41.105469 34.746094 46.082031 33.890625 51.300781 35.898438 C 55.382812 33.894531 61.011719 34.742188 65.996094 35.496094 C 68.246094 35.835938 70.371094 36.160156 72.046875 36.160156 L 72.046875 38.105469 C 70.222656 38.105469 68.027344 37.773438 65.703125 37.421875 C 60.863281 36.6875 55.375 35.859375 51.839844 37.8125 L 51.652344 37.917969 L 51.207031 37.949219 L 50.972656 37.863281 C 46.121094 35.859375 41.289062 36.6875 37.027344 37.417969 C 34.964844 37.773438 33.011719 38.109375 31.195312 38.109375 Z M 31.195312 38.109375 "/>
<path style=" stroke:none;fill-rule:nonzero;fill:rgb(0%,0%,0%);fill-opacity:1;" d="M 50.394531 22.867188 L 52.339844 22.867188 L 52.339844 36.6875 L 50.394531 36.6875 Z M 50.394531 22.867188 "/>
</g>
</svg>
